<svg width="67" height="67" viewBox="0 0 67 67" fill="none" xmlns="http://www.w3.org/2000/svg">
<path d="M0 15.2272C0 6.81746 6.81746 0 15.2272 0H51.7725C60.1823 0 66.9998 6.81746 66.9998 15.2272V51.7725C66.9998 60.1823 60.1823 66.9998 51.7725 66.9998H15.2272C6.81746 66.9998 0 60.1823 0 51.7725V15.2272Z" fill="#CBFBF1"/>
<path d="M34.7686 23.3484H38.5754C39.2485 23.3484 39.894 23.6158 40.37 24.0917C40.8459 24.5677 41.1133 25.2132 41.1133 25.8863V43.6514" stroke="#009689" stroke-width="2.53772" stroke-linecap="round" stroke-linejoin="round"/>
<path d="M20.8103 43.6514H24.6171" stroke="#009689" stroke-width="2.53772" stroke-linecap="round" stroke-linejoin="round"/>
<path d="M34.7686 43.6514H46.189" stroke="#009689" stroke-width="2.53772" stroke-linecap="round" stroke-linejoin="round"/>
<path d="M30.9618 33.4999V33.5123" stroke="#009689" stroke-width="2.53772" stroke-linecap="round" stroke-linejoin="round"/>
<path d="M34.7686 24.0615V44.5637C34.7686 44.7564 34.7246 44.9466 34.6401 45.1199C34.5556 45.2931 34.4327 45.4448 34.2808 45.5634C34.1288 45.6821 33.9519 45.7645 33.7634 45.8046C33.5748 45.8446 33.3796 45.8412 33.1926 45.7946L24.6172 43.6513V25.3304C24.6172 24.7645 24.8065 24.2148 25.1548 23.7688C25.5031 23.3228 25.9906 23.0059 26.5396 22.8687L31.6153 21.5998C31.9894 21.5063 32.3798 21.4992 32.7569 21.5792C33.1341 21.6591 33.488 21.8239 33.792 22.061C34.0959 22.2982 34.3419 22.6015 34.5111 22.9479C34.6803 23.2943 34.7684 23.676 34.7686 24.0615Z" stroke="#009689" stroke-width="2.53772" stroke-linecap="round" stroke-linejoin="round"/>
</svg>
