<svg width="20" height="20" viewBox="0 0 20 20" fill="none" xmlns="http://www.w3.org/2000/svg">
<path d="M15.8333 2.5H4.16667C3.24619 2.5 2.5 3.24619 2.5 4.16667V15.8333C2.5 16.7538 3.24619 17.5 4.16667 17.5H15.8333C16.7538 17.5 17.5 16.7538 17.5 15.8333V4.16667C17.5 3.24619 16.7538 2.5 15.8333 2.5Z" stroke="#90A1B9" stroke-width="1.66667" stroke-linecap="round" stroke-linejoin="round"/>
<path d="M7.50065 9.16666C8.42113 9.16666 9.16732 8.42047 9.16732 7.49999C9.16732 6.57952 8.42113 5.83333 7.50065 5.83333C6.58018 5.83333 5.83398 6.57952 5.83398 7.49999C5.83398 8.42047 6.58018 9.16666 7.50065 9.16666Z" stroke="#90A1B9" stroke-width="1.66667" stroke-linecap="round" stroke-linejoin="round"/>
<path d="M17.5 12.5L14.9283 9.92833C14.6158 9.61588 14.1919 9.44035 13.75 9.44035C13.3081 9.44035 12.8842 9.61588 12.5717 9.92833L5 17.5" stroke="#90A1B9" stroke-width="1.66667" stroke-linecap="round" stroke-linejoin="round"/>
</svg>
