<svg width="16" height="28" viewBox="0 0 16 28" fill="none" xmlns="http://www.w3.org/2000/svg">
<path d="M9.16 22V21.6C9.58667 21.5733 9.90667 21.52 10.12 21.44C10.3333 21.36 10.4733 21.2 10.54 20.96C10.62 20.72 10.66 20.36 10.66 19.88V9.96C10.66 9.46667 10.62 9.10667 10.54 8.88C10.4733 8.64 10.3267 8.48 10.1 8.4C9.88667 8.30667 9.57333 8.25333 9.16 8.24V7.84C9.52 7.85333 9.98667 7.86667 10.56 7.88C11.1467 7.89333 11.7267 7.9 12.3 7.9C12.9133 7.9 13.4867 7.89333 14.02 7.88C14.5667 7.86667 15.0067 7.85333 15.34 7.84V8.24C14.9133 8.25333 14.5867 8.30667 14.36 8.4C14.1467 8.48 14.0067 8.64 13.94 8.88C13.8733 9.10667 13.84 9.46667 13.84 9.96V19.88C13.84 20.36 13.8733 20.72 13.94 20.96C14.02 21.2 14.1667 21.36 14.38 21.44C14.5933 21.52 14.9133 21.5733 15.34 21.6V22C15.0067 21.9733 14.5667 21.96 14.02 21.96C13.4867 21.9467 12.9133 21.94 12.3 21.94C11.7267 21.94 11.1467 21.9467 10.56 21.96C9.98667 21.96 9.52 21.9733 9.16 22ZM0.68 22V21.6C1.10667 21.5733 1.42667 21.52 1.64 21.44C1.85333 21.36 1.99333 21.2 2.06 20.96C2.14 20.72 2.18 20.36 2.18 19.88V9.96C2.18 9.46667 2.14 9.10667 2.06 8.88C1.99333 8.64 1.84667 8.48 1.62 8.4C1.40667 8.30667 1.09333 8.25333 0.68 8.24V7.84C1.02667 7.85333 1.47333 7.86667 2.02 7.88C2.58 7.89333 3.18667 7.9 3.84 7.9C4.4 7.9 4.95333 7.89333 5.5 7.88C6.04667 7.86667 6.5 7.85333 6.86 7.84V8.24C6.43333 8.25333 6.10667 8.30667 5.88 8.4C5.66667 8.48 5.52667 8.64 5.46 8.88C5.39333 9.10667 5.36 9.46667 5.36 9.96V19.88C5.36 20.36 5.39333 20.72 5.46 20.96C5.54 21.2 5.68667 21.36 5.9 21.44C6.11333 21.52 6.43333 21.5733 6.86 21.6V22C6.5 21.9733 6.04667 21.96 5.5 21.96C4.95333 21.9467 4.4 21.94 3.84 21.94C3.18667 21.94 2.58 21.9467 2.02 21.96C1.47333 21.96 1.02667 21.9733 0.68 22ZM4.06 15.08V14.68H11.96V15.08H4.06Z" fill="white"/>
</svg>
