<svg width="67" height="67" viewBox="0 0 67 67" fill="none" xmlns="http://www.w3.org/2000/svg">
<path d="M0 15.2272C0 6.81746 6.81746 0 15.2272 0H51.7725C60.1823 0 66.9998 6.81746 66.9998 15.2272V51.7725C66.9998 60.1823 60.1823 66.9998 51.7725 66.9998H15.2272C6.81746 66.9998 0 60.1823 0 51.7725V15.2272Z" fill="#FEF3C6"/>
<path d="M33.4996 46.1892C40.5078 46.1892 46.189 40.508 46.189 33.4999C46.189 26.4917 40.5078 20.8105 33.4996 20.8105C26.4915 20.8105 20.8103 26.4917 20.8103 33.4999C20.8103 40.508 26.4915 46.1892 33.4996 46.1892Z" stroke="#E17100" stroke-width="2.53772" stroke-linecap="round" stroke-linejoin="round"/>
<path d="M33.5 25.8862V33.4999L38.5757 36.0377" stroke="#E17100" stroke-width="2.53772" stroke-linecap="round" stroke-linejoin="round"/>
</svg>
